<svg width="50" height="50" viewBox="0 0 50 50" fill="none" xmlns="http://www.w3.org/2000/svg">
<path d="M26.2301 13.8299L41.3701 21.8299L43.0001 20.9999C43.4226 20.7748 43.7759 20.4391 44.0223 20.0287C44.2687 19.6183 44.3989 19.1486 44.3989 18.6699C44.3989 18.1912 44.2687 17.7215 44.0223 17.3111C43.7759 16.9007 43.4226 16.565 43.0001 16.3399L26.2301 7.50991C25.8501 7.31267 25.4283 7.20972 25.0001 7.20972C24.572 7.20972 24.1501 7.31267 23.7701 7.50991L7.05012 16.3499C6.62763 16.575 6.27429 16.9107 6.02791 17.3211C5.78152 17.7315 5.65137 18.2012 5.65137 18.6799C5.65137 19.1586 5.78152 19.6283 6.02791 20.0387C6.27429 20.4491 6.62763 20.7848 7.05012 21.0099L8.63012 21.8399L23.7701 13.8399C24.1493 13.6411 24.5708 13.5365 24.9989 13.5347C25.427 13.533 25.8493 13.6342 26.2301 13.8299V13.8299Z" fill="#6F2CFF"/>
<path d="M23.7701 36.1699L8.63012 28.1699L7.05012 28.9999C6.62763 29.225 6.27429 29.5607 6.02791 29.9711C5.78152 30.3815 5.65137 30.8512 5.65137 31.3299C5.65137 31.8086 5.78152 32.2783 6.02791 32.6887C6.27429 33.0991 6.62763 33.4349 7.05012 33.6599L23.7701 42.4999C24.1501 42.6972 24.572 42.8001 25.0001 42.8001C25.4283 42.8001 25.8501 42.6972 26.2301 42.4999L43.0001 33.6499C43.4201 33.424 43.7711 33.0886 44.0157 32.6792C44.2603 32.2698 44.3895 31.8018 44.3895 31.3249C44.3895 30.848 44.2603 30.38 44.0157 29.9707C43.7711 29.5613 43.4201 29.2258 43.0001 28.9999L41.4201 28.1699L26.2801 36.1699C25.8938 36.3757 25.4628 36.4833 25.0251 36.4833C24.5874 36.4833 24.1564 36.3757 23.7701 36.1699V36.1699Z" fill="#6F2CFF"/>
<path d="M43.0001 22.6701L41.4201 21.8401L35.4201 25.0001L26.2601 29.8401C25.8816 30.0423 25.4592 30.1481 25.0301 30.1481C24.601 30.1481 24.1785 30.0423 23.8001 29.8401L14.6101 25.0001L8.6101 21.8401L7.0301 22.6701C6.60761 22.8952 6.25427 23.2309 6.00789 23.6413C5.7615 24.0517 5.63135 24.5214 5.63135 25.0001C5.63135 25.4788 5.7615 25.9485 6.00789 26.3589C6.25427 26.7693 6.60761 27.105 7.0301 27.3301L8.6101 28.1601L23.7501 36.1601C24.1301 36.3573 24.552 36.4603 24.9801 36.4603C25.4082 36.4603 25.8301 36.3573 26.2101 36.1601L41.3501 28.1601L43.0001 27.3301C43.4226 27.105 43.7759 26.7693 44.0223 26.3589C44.2687 25.9485 44.3988 25.4788 44.3988 25.0001C44.3988 24.5214 44.2687 24.0517 44.0223 23.6413C43.7759 23.2309 43.4226 22.8952 43.0001 22.6701V22.6701Z" fill="#D15187"/>
<path d="M26.2299 13.83C25.8499 13.6327 25.428 13.5298 24.9999 13.5298C24.5717 13.5298 24.1499 13.6327 23.7699 13.83L8.62988 21.83L14.6299 24.99L23.7899 29.83C24.1683 30.0322 24.5908 30.138 25.0199 30.138C25.449 30.138 25.8714 30.0322 26.2499 29.83L35.3899 25L41.3899 21.84L26.2299 13.83Z" fill="#A445BB"/>
</svg>
