<svg width="50" height="50" viewBox="0 0 50 50" fill="none" xmlns="http://www.w3.org/2000/svg">
<path d="M32.4 24.14L36.16 20.37L26.08 10.29C25.9386 10.1473 25.7704 10.034 25.585 9.95672C25.3997 9.87941 25.2008 9.8396 25 9.8396C24.7991 9.8396 24.6003 9.87941 24.4149 9.95672C24.2295 10.034 24.0613 10.1473 23.92 10.29L13.84 20.37L17.6 24.14C17.7136 24.2525 17.8039 24.3865 17.8655 24.5341C17.9271 24.6817 17.9588 24.8401 17.9588 25C17.9588 25.16 17.9271 25.3183 17.8655 25.4659C17.8039 25.6136 17.7136 25.7475 17.6 25.86L13.84 29.63L23.92 39.71C24.0613 39.8527 24.2295 39.966 24.4149 40.0433C24.6003 40.1206 24.7991 40.1604 25 40.1604C25.2008 40.1604 25.3997 40.1206 25.585 40.0433C25.7704 39.966 25.9386 39.8527 26.08 39.71L36.16 29.63L32.4 25.86C32.2863 25.7475 32.196 25.6136 32.1344 25.4659C32.0729 25.3183 32.0411 25.16 32.0411 25C32.0411 24.8401 32.0729 24.6817 32.1344 24.5341C32.196 24.3865 32.2863 24.2525 32.4 24.14V24.14Z" fill="#6F00FF"/>
<path d="M47.8199 24.14L40.9999 17.29C40.8874 17.1763 40.7535 17.086 40.6059 17.0245C40.4583 16.9629 40.2999 16.9312 40.1399 16.9312C39.98 16.9312 39.8216 16.9629 39.674 17.0245C39.5264 17.086 39.3925 17.1763 39.2799 17.29L36.1899 20.37L39.7399 23.92C39.8827 24.0613 39.9959 24.2295 40.0732 24.4149C40.1506 24.6003 40.1904 24.7991 40.1904 25C40.1904 25.2008 40.1506 25.3997 40.0732 25.5851C39.9959 25.7704 39.8827 25.9386 39.7399 26.08L36.1899 29.63L39.2799 32.71C39.3925 32.8237 39.5264 32.9139 39.674 32.9755C39.8216 33.0371 39.98 33.0688 40.1399 33.0688C40.2999 33.0688 40.4583 33.0371 40.6059 32.9755C40.7535 32.9139 40.8874 32.8237 40.9999 32.71L47.8499 25.86C48.0707 25.6262 48.1912 25.3153 48.1856 24.9939C48.18 24.6724 48.0488 24.3659 47.8199 24.14V24.14Z" fill="#D15187"/>
<path d="M39.71 23.9201L36.16 20.3701L32.4 24.1401C32.2863 24.2526 32.196 24.3866 32.1344 24.5342C32.0729 24.6818 32.0411 24.8402 32.0411 25.0001C32.0411 25.1601 32.0729 25.3184 32.1344 25.466C32.196 25.6137 32.2863 25.7476 32.4 25.8601L36.16 29.6301L39.71 26.0801C39.8527 25.9388 39.966 25.7706 40.0433 25.5852C40.1206 25.3998 40.1604 25.201 40.1604 25.0001C40.1604 24.7993 40.1206 24.6004 40.0433 24.415C39.966 24.2297 39.8527 24.0614 39.71 23.9201V23.9201Z" fill="#A445BB"/>
<path d="M10.29 23.92L13.84 20.37L10.75 17.29C10.6375 17.1763 10.5035 17.086 10.3559 17.0245C10.2083 16.9629 10.0499 16.9312 9.88997 16.9312C9.73002 16.9312 9.57166 16.9629 9.42404 17.0245C9.27643 17.086 9.14249 17.1763 9.02997 17.29L2.17997 24.14C1.9552 24.3698 1.82935 24.6785 1.82935 25C1.82935 25.3214 1.9552 25.6301 2.17997 25.86L8.99997 32.71C9.11249 32.8237 9.24643 32.9139 9.39404 32.9755C9.54166 33.0371 9.70002 33.0688 9.85997 33.0688C10.0199 33.0688 10.1783 33.0371 10.3259 32.9755C10.4735 32.9139 10.6075 32.8237 10.72 32.71L13.81 29.63L10.26 26.08C10.1192 25.9367 10.0082 25.7669 9.9335 25.5804C9.85875 25.394 9.8217 25.1946 9.82449 24.9937C9.82728 24.7929 9.86985 24.5946 9.94975 24.4103C10.0296 24.226 10.1453 24.0593 10.29 23.92V23.92Z" fill="#D15187"/>
<path d="M17.6 24.1401L13.84 20.3701L10.29 23.9201C10.1473 24.0614 10.034 24.2297 9.95672 24.415C9.87941 24.6004 9.8396 24.7993 9.8396 25.0001C9.8396 25.201 9.87941 25.3998 9.95672 25.5852C10.034 25.7706 10.1473 25.9388 10.29 26.0801L13.84 29.6301L17.6 25.8601C17.7137 25.7476 17.8039 25.6137 17.8655 25.466C17.9271 25.3184 17.9588 25.1601 17.9588 25.0001C17.9588 24.8402 17.9271 24.6818 17.8655 24.5342C17.8039 24.3866 17.7137 24.2526 17.6 24.1401V24.1401Z" fill="#A445BB"/>
</svg>
