<svg width="50" height="50" viewBox="0 0 50 50" fill="none" xmlns="http://www.w3.org/2000/svg">
<g style="mix-blend-mode:multiply">
<path d="M32.8499 24.63C31.9769 25.9067 30.8056 26.9511 29.4377 27.6729C28.0698 28.3946 26.5465 28.7718 24.9999 28.7718C23.4533 28.7718 21.93 28.3946 20.5621 27.6729C19.1942 26.9511 18.0229 25.9067 17.1499 24.63C15.3654 25.8835 13.9093 27.5486 12.9049 29.4843C11.9005 31.42 11.3774 33.5692 11.3799 35.75V46.88H38.6199V35.75C38.6224 33.5692 38.0993 31.42 37.0949 29.4843C36.0905 27.5486 34.6344 25.8835 32.8499 24.63V24.63Z" fill="#6F00FF"/>
</g>
<g style="mix-blend-mode:multiply">
<path d="M32.85 24.63C33.827 23.2013 34.3956 21.5331 34.4945 19.8051C34.5933 18.0771 34.2187 16.3548 33.411 14.824C32.6034 13.2932 31.3932 12.0118 29.911 11.118C28.4288 10.2242 26.7308 9.75183 25 9.75183C23.2692 9.75183 21.5711 10.2242 20.089 11.118C18.6068 12.0118 17.3966 13.2932 16.5889 14.824C15.7813 16.3548 15.4067 18.0771 15.5055 19.8051C15.6044 21.5331 16.173 23.2013 17.15 24.63C19.4442 23.003 22.1874 22.129 25 22.129C27.8126 22.129 30.5557 23.003 32.85 24.63V24.63Z" fill="#D15187"/>
</g>
<path d="M24.9999 28.77C26.5464 28.7702 28.0696 28.3933 29.4374 27.6719C30.8053 26.9505 31.9767 25.9064 32.8499 24.63C30.5557 23.003 27.8125 22.129 24.9999 22.129C22.1873 22.129 19.4441 23.003 17.1499 24.63C18.0231 25.9064 19.1945 26.9505 20.5624 27.6719C21.9303 28.3933 23.4534 28.7702 24.9999 28.77V28.77Z" fill="#A445BB"/>
<path d="M7.75 18.79L11.84 19.25L7.75 19.72V18.79Z" fill="#6F2CFF"/>
<path d="M25.46 2.01001L25 6.09001L24.54 2.01001H25.46Z" fill="#6F2CFF"/>
<path d="M42.2499 19.72L38.1599 19.25L42.2499 18.79V19.72Z" fill="#6F2CFF"/>
</svg>
