<svg width="50" height="50" viewBox="0 0 50 50" fill="none" xmlns="http://www.w3.org/2000/svg">
<path d="M33.0001 26.07L36.9001 30C36.9996 30.1004 37.1179 30.1801 37.2484 30.2345C37.3788 30.2889 37.5188 30.3169 37.6601 30.3169C37.8014 30.3169 37.9413 30.2889 38.0718 30.2345C38.2022 30.1801 38.3206 30.1004 38.4201 30L41.1801 27.24V13C41.1814 12.7874 41.1194 12.5792 41.0019 12.402C40.8845 12.2248 40.7168 12.0866 40.5205 12.005C40.3241 11.9235 40.1079 11.9023 39.8995 11.9442C39.691 11.986 39.4997 12.089 39.3501 12.24L28.4701 23.15C28.3706 23.2504 28.2522 23.3301 28.1218 23.3845C27.9913 23.4389 27.8514 23.4669 27.7101 23.4669C27.5688 23.4669 27.4288 23.4389 27.2984 23.3845C27.1679 23.3301 27.0496 23.2504 26.9501 23.15L20.6201 16.82C20.5206 16.7197 20.4022 16.64 20.2718 16.5856C20.1413 16.5312 20.0014 16.5032 19.8601 16.5032C19.7188 16.5032 19.5788 16.5312 19.4484 16.5856C19.3179 16.64 19.1996 16.7197 19.1001 16.82L3.36008 32.69C3.21248 32.8402 3.11248 33.0306 3.07259 33.2374C3.03271 33.4441 3.05471 33.6581 3.13585 33.8524C3.21699 34.0467 3.35366 34.2127 3.52873 34.3297C3.70381 34.4467 3.90951 34.5094 4.12008 34.51H23.1201L31.4901 26.07C31.6906 25.8704 31.9621 25.7583 32.2451 25.7583C32.5281 25.7583 32.7995 25.8704 33.0001 26.07V26.07Z" fill="#6F00FF"/>
<path d="M45.1201 23.26L41.1801 27.21V33.43C41.1801 33.7138 41.0674 33.9859 40.8667 34.1866C40.666 34.3873 40.3939 34.5 40.1101 34.5H23.1101L21.4201 36.21C21.2691 36.3597 21.1661 36.5509 21.1242 36.7594C21.0824 36.9678 21.1036 37.184 21.1851 37.3804C21.2666 37.5768 21.4048 37.7444 21.5821 37.8619C21.7593 37.9793 21.9675 38.0413 22.1801 38.04H45.8801C46.0223 38.0467 46.1644 38.025 46.298 37.9761C46.4317 37.9272 46.5543 37.8521 46.6586 37.7553C46.7629 37.6584 46.8468 37.5417 46.9054 37.412C46.9641 37.2824 46.9963 37.1423 47.0001 37V24C47.0088 23.7782 46.9482 23.5591 46.8269 23.3733C46.7055 23.1874 46.5294 23.0438 46.3228 22.9625C46.1163 22.8812 45.8895 22.8662 45.674 22.9195C45.4585 22.9728 45.265 23.0918 45.1201 23.26V23.26Z" fill="#D15187"/>
<path d="M41.1801 33.43V27.21L38.4201 30C38.3206 30.1004 38.2022 30.18 38.0718 30.2344C37.9414 30.2888 37.8014 30.3168 37.6601 30.3168C37.5188 30.3168 37.3789 30.2888 37.2484 30.2344C37.118 30.18 36.9996 30.1004 36.9001 30L33.0001 26.07C32.9006 25.9696 32.7822 25.8899 32.6518 25.8355C32.5214 25.7812 32.3814 25.7532 32.2401 25.7532C32.0988 25.7532 31.9589 25.7812 31.8284 25.8355C31.698 25.8899 31.5796 25.9696 31.4801 26.07L23.1101 34.51H40.1101C40.2515 34.51 40.3914 34.482 40.5219 34.4276C40.6524 34.3732 40.7708 34.2935 40.8703 34.1931C40.9698 34.0926 41.0484 33.9735 41.1015 33.8425C41.1547 33.7116 41.1814 33.5713 41.1801 33.43Z" fill="#A445BB"/>
</svg>
