<svg width="50" height="50" viewBox="0 0 50 50" fill="none" xmlns="http://www.w3.org/2000/svg">
<path d="M25 16.0001C28.2972 16.0001 30.97 13.3272 30.97 10.0301C30.97 6.73292 28.2972 4.06006 25 4.06006C21.7029 4.06006 19.03 6.73292 19.03 10.0301C19.03 13.3272 21.7029 16.0001 25 16.0001Z" fill="#A445BB"/>
<path d="M12.0401 23.49C15.3372 23.49 18.0101 20.8172 18.0101 17.52C18.0101 14.2229 15.3372 11.55 12.0401 11.55C8.74293 11.55 6.07007 14.2229 6.07007 17.52C6.07007 20.8172 8.74293 23.49 12.0401 23.49Z" fill="#6F2CFF"/>
<path d="M12.0401 38.45C15.3372 38.45 18.0101 35.7771 18.0101 32.48C18.0101 29.1829 15.3372 26.51 12.0401 26.51C8.74293 26.51 6.07007 29.1829 6.07007 32.48C6.07007 35.7771 8.74293 38.45 12.0401 38.45Z" fill="#A445BB"/>
<path d="M25 45.94C28.2972 45.94 30.97 43.2671 30.97 39.97C30.97 36.6729 28.2972 34 25 34C21.7029 34 19.03 36.6729 19.03 39.97C19.03 43.2671 21.7029 45.94 25 45.94Z" fill="#6F2CFF"/>
<path d="M37.96 38.45C41.2571 38.45 43.93 35.7771 43.93 32.48C43.93 29.1829 41.2571 26.51 37.96 26.51C34.6628 26.51 31.99 29.1829 31.99 32.48C31.99 35.7771 34.6628 38.45 37.96 38.45Z" fill="#A445BB"/>
<path d="M37.96 23.49C41.2571 23.49 43.93 20.8172 43.93 17.52C43.93 14.2229 41.2571 11.55 37.96 11.55C34.6628 11.55 31.99 14.2229 31.99 17.52C31.99 20.8172 34.6628 23.49 37.96 23.49Z" fill="#6F2CFF"/>
<path d="M25.0001 28.9101C27.1595 28.9101 28.9101 27.1595 28.9101 25.0001C28.9101 22.8407 27.1595 21.0901 25.0001 21.0901C22.8407 21.0901 21.0901 22.8407 21.0901 25.0001C21.0901 27.1595 22.8407 28.9101 25.0001 28.9101Z" fill="#D15187"/>
</svg>
